Torrent By
Dr.Abolfazl.Rezaei@gmail.com

Ø³Ø±ÙŠØ§Ù„ Ø¬Ø°Ø§Ø¨ Ú©Ø§Ù¾Ø±ÙŠÚ©Ø§ Ø¨Ø§ Ø²ÙŠØ± Ù†ÙˆÙŠØ³ ÙØ§Ø±Ø³ÙŠ Ø¨Ø§ Ú©ÙŠÙÙŠØª 
480p

1389-02-16 Tehran /IRAN
---------------------------------------------------------

E:Caprica S01E01-E09 480p XVID Farsi SubtitlesCaprica S01E07.avi
   General
      Complete name : E:Caprica S01E01-E09 480p XVID Farsi SubtitlesCaprica S01E07.avi
      Format : AVI
      Format/Info : Audio Video Interleave
      File size : 350 MiB
      Duration : 43mn 17s
      Overall bit rate : 1 130 Kbps
      Writing application : transcode-1.0.4
   Video #0
      ID : 0
      Format : MPEG-4 Visual
      Format profile : AdvancedSimple@L5
      Format settings, BVOP : Yes
      Format settings, QPel : No
      Format settings, GMC : No warppoints
      Format settings, Matrix : Default (H.263)
      Codec ID : XVID
      Codec ID/Hint : XviD
      Duration : 43mn 17s
      Bit rate : 965 Kbps
      Width : 624 pixels
      Height : 352 pixels
      Display aspect ratio : 16:9
      Frame rate : 23.976 fps
      Resolution : 24 bits
      Colorimetry : 4:2:0
      Scan type : Progressive
      Bits/(Pixel*Frame) : 0.183
      Stream size : 299 MiB (85%)
      Writing library : XviD 1.2.1 (UTC 2008-12-04)
   Audio #1
      ID : 1
      Format : MPEG Audio
      Format version : Version 1
      Format profile : Layer 3
      Codec ID : 55
      Codec ID/Hint : MP3
      Duration : 43mn 17s
      Bit rate mode : Variable
      Bit rate : 128 Kbps
      Channel(s) : 2 channels
      Sampling rate : 48.0 KHz
      Resolution : 16 bits
      Stream size : 47.3 MiB (14%)
      Alignment : Aligned on interleaves
      Interleave, duration : 24 ms (0.58 video frame)